<svg version="1.1" xmlns="http://www.w3.org/2000/svg" viewBox="0 0 2048 2048" width="2048" height="2048">
<defs>
<linearGradient id="bg" x1="0" y1="0" x2="1" y2="1">
<stop offset="0" stop-color="#1a2c4d"/>
<stop offset="1" stop-color="#0b1322"/>
</linearGradient>
</defs>
<rect x="0" y="0" width="2048" height="2048" fill="url(#bg)"/>
<path transform="translate(0,0)" fill="rgb(37,97,172)" d="M 405.324 504.85 L 913.614 973.281 L 1069.11 1115.96 C 1092.85 1137.77 1124.6 1165.46 1146.99 1188.07 L 1146.89 1376.84 L 695.608 959.49 C 644.966 912.396 592.488 864.89 542.448 817.437 L 542.095 1317.13 L 774.133 1122.1 L 1012.6 1342.49 L 1108.25 1431.54 C 1123.45 1445.69 1142.6 1464.66 1158.07 1477.75 L 1062.63 1477.84 C 1026.02 1442.4 984.647 1405.23 947.038 1370.45 L 773.272 1210 L 527.507 1414.11 L 467.655 1463.92 C 463.346 1467.51 443.964 1483.45 441.341 1486.87 C 439.296 1489.53 411.337 1512.69 406.39 1516.9 C 405.823 1500.45 403.237 1475.27 405.108 1459.72 C 406.462 1366.38 405.157 1270.07 405.164 1176.43 L 405.324 504.85 z"/>
<path transform="translate(0,0)" fill="rgb(167,170,176)" d="M 965.336 508.973 L 1210.8 508.912 L 1291.28 508.852 C 1328.83 508.83 1353.64 507.726 1390.73 515.477 C 1435.89 525.026 1478.3 544.678 1514.78 572.96 C 1588.87 631.288 1629.24 709.97 1640.05 803.01 C 1661.64 988.761 1541.08 1156.33 1351.68 1177.74 L 1351.75 1477.87 L 1216.05 1477.92 L 1216.02 1046.18 L 1287.94 1046.27 C 1303.07 1046.27 1323.05 1046.8 1337.71 1045.41 C 1377.85 1041.24 1415.41 1023.66 1444.33 995.504 C 1523.51 918.568 1526.8 775.926 1448.8 696.34 C 1392.67 639.065 1326.16 646.494 1253.46 646.545 L 1102.12 646.611 L 1102.25 1016.91 C 1146.02 981.147 1196.27 944.556 1238.65 908.336 L 1239.01 911.243 C 1225.95 924.257 1212.63 940.45 1200.17 954.358 C 1170.22 988.22 1139.98 1021.82 1109.44 1055.15 L 1016.9 969.527 C 1000.14 954.077 981.933 938.031 965.65 922.272 L 965.336 508.973 z"/>
<path transform="translate(0,0)" fill="rgb(37,97,172)" d="M 1400.86 738.145 L 1401.25 738.51 C 1402.2 743.477 1317.22 962.232 1306.79 989.047 C 1295.84 956.573 1285.65 914.909 1276.47 881.24 L 1274.27 873.905 L 1167.01 843.977 C 1243.86 808.098 1323.34 773.014 1400.86 738.145 z"/>
<path transform="translate(0,0)" fill="rgb(37,97,172)" d="M 710.62 1419.48 C 728.258 1419.52 745.896 1419.43 763.533 1419.24 C 763.366 1437.78 763.351 1456.33 763.489 1474.87 C 745.674 1475.49 726.664 1475.14 708.756 1475.11 C 708.63 1458.02 708.24 1439.53 708.938 1422.38 C 709.026 1420.22 708.882 1420.81 710.62 1419.48 z"/>
<path transform="translate(0,0)" fill="rgb(37,97,172)" d="M 782.89 1419.23 C 801.131 1419.41 819.374 1419.49 837.617 1419.46 C 837.755 1437.93 837.791 1456.41 837.725 1474.88 C 819.882 1475.38 800.866 1475.06 782.937 1475.06 L 782.89 1419.23 z"/>
<path transform="translate(0,0)" fill="rgb(37,97,172)" d="M 783.373 1347.48 L 837.803 1347.26 L 837.705 1401.77 C 832.463 1403.39 791.536 1402.43 782.821 1402.41 C 782.834 1391.02 782.068 1357.34 783.373 1347.48 z"/>
<path transform="translate(0,0)" fill="rgb(37,97,172)" d="M 708.854 1347.38 C 726.926 1347.24 745.259 1347.48 763.352 1347.56 L 763.603 1402.39 L 708.841 1402.2 C 708.672 1383.93 708.676 1365.65 708.854 1347.38 z"/>
</svg>
