<svg version="1.1" xmlns="http://www.w3.org/2000/svg" style="display: block;" viewBox="0 0 2048 2048" width="2048" height="2048" preserveAspectRatio="none">
<path transform="translate(0,0)" fill="rgb(254,254,254)" d="M 0 0 L 2048 0 L 2048 2048 L 0 2048 L 0 0 z"/>
<path transform="translate(0,0)" fill="rgb(19,39,77)" d="M 1945.97 1537.57 C 1943.58 1553.64 1943.58 1574.15 1940.66 1593.43 C 1930.32 1661.18 1903.22 1725.27 1861.83 1779.9 C 1797.31 1865.6 1698.82 1926.3 1592.18 1941.51 C 1559.67 1946.14 1529.09 1945.43 1496.39 1945.42 L 1396.03 1945.39 L 1042.11 1945.4 L 663.362 1945.45 L 555.132 1945.48 C 519.079 1945.48 485.867 1946.27 450.078 1940.56 C 383.061 1929.45 319.869 1901.82 266.209 1860.17 C 179.129 1793.62 121.794 1695.43 106.642 1586.89 C 101.903 1551.7 102.693 1522.75 102.69 1487.41 L 102.608 1389.5 L 102.765 1049.55 L 102.716 677.874 L 102.647 570.81 C 102.631 530.937 101.579 501.89 107.796 462.502 C 118.894 392.301 147.188 325.935 190.156 269.321 C 264.235 171.986 373.977 108.102 495.197 91.7473 C 530.264 87.2319 560.748 87.7054 595.901 87.7057 L 696.342 87.7504 L 1035.93 87.7492 L 1361.2 87.7061 L 1454.22 87.6908 C 1494.67 87.6641 1528.3 87.1501 1568.46 94.1373 C 1642.91 106.717 1713.11 137.5 1772.8 183.75 C 1869.36 258.702 1931.22 365.135 1943.65 487.336 C 1944.76 498.249 1944.48 509.391 1945.89 520.307 L 1946.04 521.4 C 1944.56 588.206 1945.75 659.508 1945.74 726.654 L 1945.73 1102.2 L 1945.83 1393.65 C 1945.85 1439.05 1944.44 1492.78 1945.97 1537.57 z"/>
<path transform="translate(0,0)" fill="rgb(14,21,38)" d="M 547.724 118.46 C 582.243 117.263 621.019 118.137 655.891 118.125 L 860.359 118.202 L 1470.39 118.039 C 1498.13 117.985 1524.25 119.07 1551.78 123.431 C 1640.89 137.984 1723.3 179.811 1787.65 243.151 C 1841.19 295.759 1878.62 362.548 1895.53 435.679 C 1910.23 499.274 1906.87 557.597 1906.89 622.429 L 1906.79 817.103 L 1906.89 1481.8 C 1906.87 1508.61 1907.31 1532.83 1904.51 1559.64 C 1895.96 1647.23 1856.78 1728.98 1793.88 1790.52 C 1733.99 1850.6 1655.25 1888.25 1570.89 1897.16 C 1547.83 1899.54 1523.98 1898.96 1500.75 1898.9 L 788.561 1898.99 L 597.042 1898.97 C 547.741 1898.96 490.947 1901.56 443.322 1892.06 C 377.279 1878.75 316.125 1847.66 266.46 1802.14 C 190.631 1733.35 145.677 1636.94 141.73 1534.63 C 140.574 1510.37 141.171 1483.1 141.183 1458.66 L 141.179 1335.51 L 141.143 938.986 L 141.052 655.995 L 140.985 571.057 C 140.963 525.776 140.517 492.32 149.773 447.167 C 164.265 375.913 198.019 309.997 247.363 256.589 C 325.232 172.574 433.258 122.895 547.724 118.46 z"/>
<path transform="translate(0,0)" fill="rgb(37,97,172)" d="M 405.324 504.85 L 913.614 973.281 L 1069.11 1115.96 C 1092.85 1137.77 1124.6 1165.46 1146.99 1188.07 L 1146.89 1376.84 L 695.608 959.49 C 644.966 912.396 592.488 864.89 542.448 817.437 L 542.095 1317.13 L 774.133 1122.1 L 1012.6 1342.49 L 1108.25 1431.54 C 1123.45 1445.69 1142.6 1464.66 1158.07 1477.75 L 1062.63 1477.84 C 1026.02 1442.4 984.647 1405.23 947.038 1370.45 L 773.272 1210 L 527.507 1414.11 L 467.655 1463.92 C 463.346 1467.51 443.964 1483.45 441.341 1486.87 C 439.296 1489.53 411.337 1512.69 406.39 1516.9 C 405.823 1500.45 403.237 1475.27 405.108 1459.72 C 406.462 1366.38 405.157 1270.07 405.164 1176.43 L 405.324 504.85 z"/>
<path transform="translate(0,0)" fill="rgb(13,30,58)" d="M 405.108 1459.72 C 405.887 1469.01 405.753 1478.54 405.789 1487.88 L 441.341 1486.87 C 439.296 1489.53 411.337 1512.69 406.39 1516.9 C 405.823 1500.45 403.237 1475.27 405.108 1459.72 z"/>
<path transform="translate(0,0)" fill="rgb(167,170,176)" d="M 965.336 508.973 L 1210.8 508.912 L 1291.28 508.852 C 1328.83 508.83 1353.64 507.726 1390.73 515.477 C 1435.89 525.026 1478.3 544.678 1514.78 572.96 C 1588.87 631.288 1629.24 709.97 1640.05 803.01 C 1661.64 988.761 1541.08 1156.33 1351.68 1177.74 L 1351.75 1477.87 L 1216.05 1477.92 L 1216.02 1046.18 L 1287.94 1046.27 C 1303.07 1046.27 1323.05 1046.8 1337.71 1045.41 C 1377.85 1041.24 1415.41 1023.66 1444.33 995.504 C 1523.51 918.568 1526.8 775.926 1448.8 696.34 C 1392.67 639.065 1326.16 646.494 1253.46 646.545 L 1102.12 646.611 L 1102.25 1016.91 C 1146.02 981.147 1196.27 944.556 1238.65 908.336 L 1239.01 911.243 C 1225.95 924.257 1212.63 940.45 1200.17 954.358 C 1170.22 988.22 1139.98 1021.82 1109.44 1055.15 L 1016.9 969.527 C 1000.14 954.077 981.933 938.031 965.65 922.272 L 965.336 508.973 z"/>
<path transform="translate(0,0)" fill="rgb(37,97,172)" d="M 1400.86 738.145 L 1401.25 738.51 C 1402.2 743.477 1317.22 962.232 1306.79 989.047 C 1295.84 956.573 1285.65 914.909 1276.47 881.24 L 1274.27 873.905 L 1167.01 843.977 C 1243.86 808.098 1323.34 773.014 1400.86 738.145 z"/>
<path transform="translate(0,0)" fill="rgb(37,97,172)" d="M 710.62 1419.48 C 728.258 1419.52 745.896 1419.43 763.533 1419.24 C 763.366 1437.78 763.351 1456.33 763.489 1474.87 C 745.674 1475.49 726.664 1475.14 708.756 1475.11 C 708.63 1458.02 708.24 1439.53 708.938 1422.38 C 709.026 1420.22 708.882 1420.81 710.62 1419.48 z"/>
<path transform="translate(0,0)" fill="rgb(37,97,172)" d="M 782.89 1419.23 C 801.131 1419.41 819.374 1419.49 837.617 1419.46 C 837.755 1437.93 837.791 1456.41 837.725 1474.88 C 819.882 1475.38 800.866 1475.06 782.937 1475.06 L 782.89 1419.23 z"/>
<path transform="translate(0,0)" fill="rgb(37,97,172)" d="M 783.373 1347.48 L 837.803 1347.26 L 837.705 1401.77 C 832.463 1403.39 791.536 1402.43 782.821 1402.41 C 782.834 1391.02 782.068 1357.34 783.373 1347.48 z"/>
<path transform="translate(0,0)" fill="rgb(37,97,172)" d="M 708.854 1347.38 C 726.926 1347.24 745.259 1347.48 763.352 1347.56 L 763.603 1402.39 L 708.841 1402.2 C 708.672 1383.93 708.676 1365.65 708.854 1347.38 z"/>
<path transform="translate(0,0)" fill="rgb(81,85,100)" d="M 1238.65 908.336 C 1241.56 905.507 1242.22 903.912 1245.57 902.984 C 1244.86 906.178 1241.5 908.799 1239.01 911.243 L 1238.65 908.336 z"/>
<path transform="translate(0,0)" fill="rgb(13,30,58)" d="M 125.075 418.322 L 126.814 419.396 C 128.079 422.361 127.624 426.372 127.542 429.739 C 126.274 430.681 127.013 430.417 125.281 430.393 C 124.06 426.984 124.816 422.095 125.075 418.322 z"/>
</svg>
